<svg width="960" height="260" viewBox="0 0 960 260" fill="none" xmlns="http://www.w3.org/2000/svg" role="img" aria-labelledby="title desc">
  <title id="title">Liferadar primary logo</title>
  <desc id="desc">A modern Liferadar logo with a radar-inspired icon in teal, coral, and midnight slate and a wordmark.</desc>
  <rect width="960" height="260" rx="28" fill="white"/>

  <g transform="translate(52 34)">
    <circle cx="96" cy="96" r="78" stroke="#142033" stroke-width="10"/>
    <circle cx="96" cy="96" r="52" stroke="#1FB7A6" stroke-width="8" opacity="0.92"/>
    <circle cx="96" cy="96" r="24" stroke="#142033" stroke-width="6" opacity="0.7"/>

    <path d="M96 96 L96 28 A68 68 0 0 1 154 62 Z" fill="#1FB7A6" opacity="0.2"/>
    <path d="M96 96 L160 56" stroke="#1FB7A6" stroke-width="8" stroke-linecap="round"/>
    <circle cx="96" cy="96" r="11" fill="#142033"/>
    <circle cx="160" cy="56" r="13" fill="#FF6B5E"/>

    <path d="M30 150 C54 136 72 130 96 128 C124 126 148 132 168 146" stroke="#FF6B5E" stroke-width="8" stroke-linecap="round" opacity="0.95"/>
  </g>

  <g fill="#142033">
    <text x="290" y="118" font-family="Inter, Segoe UI, Arial, sans-serif" font-size="64" font-weight="800" letter-spacing="3">LIFERADAR</text>
    <text x="292" y="162" font-family="Inter, Segoe UI, Arial, sans-serif" font-size="24" font-weight="500" letter-spacing="1.6" fill="#1FB7A6">track growth • see signals • move with clarity</text>
  </g>

  <rect x="290" y="184" width="106" height="8" rx="4" fill="#FF6B5E"/>
</svg>

